<?xml version="1.0" encoding="UTF-8"?>
<svg version="1.1" xmlns="http://www.w3.org/2000/svg" width="500" height="500">
<path d="M0 0 C6.17342738 2.55452167 9.15020854 6.00156254 12 12 C14.38109633 17.89251854 15.16198455 24.12902924 16.125 30.375 C16.30313232 31.53008057 16.48126465 32.68516113 16.66479492 33.87524414 C19.72639637 54.82081088 19.72639637 54.82081088 17 63 C16.61780712 67.05124452 16.69887255 69.4097902 18.5625 73.0625 C23.43685279 79.15127891 23.43685279 79.15127891 30.23046875 82.65625 C37.53823091 83.29072237 43.45763819 80.35200395 49.94506836 77.42504883 C57.0788228 74.24947606 64.34512143 71.8330255 71.8125 69.5625 C72.92761963 69.22089844 74.04273926 68.87929687 75.19165039 68.52734375 C84.31307084 65.79070903 94.1405965 62.86930782 103.4375 66.25 C106.04596634 68.03139165 107.34149175 69.3416482 109 72 C110.03018186 77.54070782 109.46776992 82.64209512 106.328125 87.3515625 C103.7908814 90.50072955 100.97972717 93.27225822 98 96 C97.44183594 96.52722656 96.88367188 97.05445313 96.30859375 97.59765625 C91.92449876 101.57487468 87.25505508 104.31656762 82 107 C80.83339844 107.6084375 79.66679687 108.216875 78.46484375 108.84375 C67.9803828 114.24655093 57.20404771 119.26531743 46 123 C44.45443204 127.63670387 44.37504589 132.1618721 45 137 C46.95605333 139.71564997 46.95605333 139.71564997 48.59765625 141.25390625 C50.47997911 143.59763415 51.16482513 145.96714664 52.125 148.8125 C55.09252926 157.04621611 59.87774559 163.90149924 64.74316406 171.12451172 C79.23379557 192.74786666 79.23379557 192.74786666 78.52734375 204.55078125 C77.49486947 209.34605069 74.96500307 212.44154929 71.1875 215.4375 C62.89366344 217.57020083 56.3588315 214.84751088 49 211 C45.14624584 208.55148216 41.57043808 205.84219008 38 203 C36.96617187 202.19304687 35.93234375 201.38609375 34.8671875 200.5546875 C29.17051265 196.02357272 29.17051265 196.02357272 27 194 C27 193.34 27 192.68 27 192 C26.34 192 25.68 192 25 192 C25 191.34 25 190.68 25 190 C24.34 190 23.68 190 23 190 C23 189.34 23 188.68 23 188 C22.34 188 21.68 188 21 188 C17 183.52941176 17 183.52941176 17 181 C16.34 181 15.68 181 15 181 C13.92093989 179.54132595 12.91236029 178.03027714 11.9375 176.5 C8.40699503 171.33322759 4.46596881 166.21584384 -1 163 C-5.49589024 163.08270032 -9.44990174 165.35534335 -13 168 C-14.9933703 170.10444566 -16.65563315 172.37559239 -18.3125 174.75 C-19.83052601 176.88208466 -21.37531159 178.94463551 -23 181 C-23.66 181 -24.32 181 -25 181 C-25 181.66 -25 182.32 -25 183 C-25.66 183 -26.32 183 -27 183 C-27.66 184.32 -28.32 185.64 -29 187 C-29.66 187 -30.32 187 -31 187 C-31.08894531 187.5775 -31.17789063 188.155 -31.26953125 188.75 C-32.99834985 194.0751311 -38.72927706 198.35932795 -43.375 201.25 C-46.07944719 202.71191391 -46.07944719 202.71191391 -46.83984375 204.91796875 C-49.23668603 209.21937257 -54.73174059 210.8777596 -59 213 C-59.63679688 213.34675781 -60.27359375 213.69351563 -60.9296875 214.05078125 C-65.77837979 216.49832688 -70.70525684 216.79377533 -76 216 C-80.12591523 213.93704238 -82.30645102 212.25675825 -84 208 C-84.3359375 205.5546875 -84.3359375 205.5546875 -84.375 202.875 C-84.40335938 202.00617188 -84.43171875 201.13734375 -84.4609375 200.2421875 C-83.23834846 191.64262053 -78.5988001 184.16605458 -74.125 176.875 C-73.62097656 176.03324219 -73.11695313 175.19148437 -72.59765625 174.32421875 C-69.71022395 169.56106317 -66.65420882 165.06297522 -63.19482422 160.69580078 C-61.80576956 158.897155 -61.80576956 158.897155 -61 156 C-60.34 156 -59.68 156 -59 156 C-58.86271484 154.93652344 -58.86271484 154.93652344 -58.72265625 153.8515625 C-57.86634314 150.47259726 -56.36843004 148.26944462 -54.4375 145.375 C-50.84820367 139.43687989 -49.96816526 134.83590512 -51 128 C-51.33 127.01 -51.66 126.02 -52 125 C-52.66 125 -53.32 125 -54 125 C-54.515625 124.40960938 -55.03125 123.81921875 -55.5625 123.2109375 C-58.97825194 120.11267532 -62.67562182 119.07518954 -67 117.625 C-74.6802153 114.93630107 -81.84275574 111.90005526 -89 108 C-89 107.34 -89 106.68 -89 106 C-89.55300781 105.896875 -90.10601562 105.79375 -90.67578125 105.6875 C-99.82952343 102.97983845 -109.07421005 95.04546568 -114.22265625 87.1171875 C-116.83625064 81.69549866 -116.53912846 76.90280634 -114.9375 71.25 C-113.06327424 68.10613743 -111.87748355 66.53798313 -108.37109375 65.37890625 C-95.49966979 63.32202301 -83.00381809 67.94766211 -71 72 C-69.98550781 72.3407959 -68.97101563 72.6815918 -67.92578125 73.03271484 C-62.84681754 74.7483488 -57.77645999 76.48826937 -52.71875 78.265625 C-51.90341797 78.55211914 -51.08808594 78.83861328 -50.24804688 79.13378906 C-48 80 -48 80 -45.83935547 81.08740234 C-42.39083661 82.79838768 -38.74321592 82.5273052 -35 82 C-30.6144808 79.76586758 -27.74800948 77.07112515 -25 73 C-23.74564757 68.91666731 -23.70817734 64.77418654 -23.53515625 60.53515625 C-23.4565317 58.83007113 -23.37775042 57.12499324 -23.29882812 55.41992188 C-23.1801463 52.75457659 -23.06363245 50.08916813 -22.95043945 47.42358398 C-21.75904988 19.7631879 -21.75904988 19.7631879 -17.375 10.1875 C-16.70597656 8.69283203 -16.70597656 8.69283203 -16.0234375 7.16796875 C-15.68570313 6.45253906 -15.34796875 5.73710938 -15 5 C-14.34 5 -13.68 5 -13 5 C-13 4.34 -13 3.68 -13 3 C-8.44853747 0.33572925 -5.2699494 -0.64718677 0 0 Z " fill="#F76819" transform="translate(253,120)"/>
<path d="M0 0 C6.17342738 2.55452167 9.15020854 6.00156254 12 12 C14.38109633 17.89251854 15.16198455 24.12902924 16.125 30.375 C16.30313232 31.53008057 16.48126465 32.68516113 16.66479492 33.87524414 C19.72639637 54.82081088 19.72639637 54.82081088 17 63 C16.45645414 68.76158611 17.46965272 71.46098207 21 76 C21.5775 76.78375 22.155 77.5675 22.75 78.375 C23.1625 78.91125 23.575 79.4475 24 80 C23.01 80.495 23.01 80.495 22 81 C18.311281 79.20293177 16.38844597 77.25697177 14 74 C13.01 73.67 12.02 73.34 11 73 C10.83972052 70.1951091 10.89418762 68.25917607 11.96484375 65.63671875 C14.92337216 58.1008445 13.99840386 49.72370882 13.15625 41.84765625 C13.01372769 39.25018718 13.19732193 37.44934851 14 35 C13.34 35 12.68 35 12 35 C11.08181411 30.14673171 10.65751965 25.30900691 10.28125 20.390625 C10.13587139 17.98870573 10.13587139 17.98870573 9 16 C8.175 15.67 7.35 15.34 6.5 15 C4 14 4 14 3 12 C3.99 12 4.98 12 6 12 C5.37466625 9.47636012 5.37466625 9.47636012 4 7 C1.37072775 6.03132075 -0.27866998 5.8196675 -3 6.5 C-5.57433043 7.14358261 -7.4556383 6.63609042 -10 6 C-14.43360181 13.05345742 -17.77284693 21.4986838 -17 30 C-16.67 30.66 -16.34 31.32 -16 32 C-17.6 37.6 -17.6 37.6 -19 39 C-19.07518886 40.59080829 -19.08314951 42.18489344 -19.0625 43.77734375 C-19.05476562 44.76669922 -19.04703125 45.75605469 -19.0390625 46.77539062 C-19.01345506 48.8483127 -18.98742838 50.92122965 -18.9609375 52.99414062 C-18.91143051 59.40117038 -19.21108042 65.64021636 -20 72 C-21.485 72.495 -21.485 72.495 -23 73 C-23.144375 73.61875 -23.28875 74.2375 -23.4375 74.875 C-24.1872454 77.7073715 -25.59730651 78.44987517 -28 80 C-28.66 79.67 -29.32 79.34 -30 79 C-28.73046875 77.56770833 -27.4609375 76.13541667 -26.19140625 74.703125 C-23.31187903 70.58681723 -23.73290023 65.37989908 -23.53515625 60.53515625 C-23.4565317 58.83007113 -23.37775042 57.12499324 -23.29882812 55.41992188 C-23.1801463 52.75457659 -23.06363245 50.08916813 -22.95043945 47.42358398 C-21.75904988 19.7631879 -21.75904988 19.7631879 -17.375 10.1875 C-16.92898437 9.19105469 -16.48296875 8.19460937 -16.0234375 7.16796875 C-15.68570313 6.45253906 -15.34796875 5.73710938 -15 5 C-14.34 5 -13.68 5 -13 5 C-13 4.34 -13 3.68 -13 3 C-8.44853747 0.33572925 -5.2699494 -0.64718677 0 0 Z " fill="#EE9826" transform="translate(253,120)"/>
<path d="M0 0 C4.95 0.33 9.9 0.66 15 1 C15 2.32 15 3.64 15 5 C16.32 5.33 17.64 5.66 19 6 C19 6.66 19 7.32 19 8 C19.99 8.33 20.98 8.66 22 9 C22.2556968 17.05444934 22.15196384 27.54048328 16.3125 33.8125 C14.22813499 37.28644168 15.28341759 40.09136868 16 44 C14.68 44 13.36 44 12 44 C11.34 45.98 10.68 47.96 10 50 C8.68 50 7.36 50 6 50 C6.33 51.32 6.66 52.64 7 54 C6.34 54 5.68 54 5 54 C5.33 55.65 5.66 57.3 6 59 C5.34 59 4.68 59 4 59 C4 59.99 4 60.98 4 62 C3.40445313 62.09539062 2.80890625 62.19078125 2.1953125 62.2890625 C-0.47450677 63.15366589 -1.37862885 64.20803685 -3.125 66.375 C-3.62257812 66.98085938 -4.12015625 67.58671875 -4.6328125 68.2109375 C-5.81771238 69.76146363 -6.91753571 71.37630357 -8 73 C-8.5256437 66.81174003 -7.12370111 63.5698382 -3.875 58.5625 C-3.46701172 57.90797852 -3.05902344 57.25345703 -2.63867188 56.57910156 C0.00058825 52.39577036 2.7888707 48.3603928 5.90625 44.515625 C7.20991129 42.86814368 7.20991129 42.86814368 8 40 C8.66 40 9.32 40 10 40 C10.09152344 39.29101562 10.18304688 38.58203125 10.27734375 37.8515625 C11.13365686 34.47259726 12.63156996 32.26944462 14.5625 29.375 C18.15179633 23.43687989 19.03183474 18.83590512 18 12 C17.67 11.01 17.34 10.02 17 9 C16.34 9 15.68 9 15 9 C14.41734375 8.38640625 13.8346875 7.7728125 13.234375 7.140625 C10.67237171 4.68611835 8.59612708 3.86537569 5.25 2.75 C4.26515625 2.41484375 3.2803125 2.0796875 2.265625 1.734375 C1.51796875 1.49203125 0.7703125 1.2496875 0 1 C0 0.67 0 0.34 0 0 Z " fill="#F15423" transform="translate(184,236)"/>
<path d="M0 0 C1.01449219 0.3407959 2.02898437 0.6815918 3.07421875 1.03271484 C8.15318246 2.7483488 13.22354001 4.48826937 18.28125 6.265625 C19.09658203 6.55211914 19.91191406 6.83861328 20.75195312 7.13378906 C23 8 23 8 25.15844727 9.09179688 C29.42210466 11.19451536 34.69018037 10.4276962 39.0625 9 C40.0215625 8.505 40.0215625 8.505 41 8 C40 11 40 11 38 12 C36.5534758 12.15067214 35.1012066 12.24861036 33.6484375 12.31640625 C32.79765625 12.35830078 31.946875 12.40019531 31.0703125 12.44335938 C29.73613281 12.50233398 29.73613281 12.50233398 28.375 12.5625 C27.02921875 12.62727539 27.02921875 12.62727539 25.65625 12.69335938 C23.43765717 12.79956861 21.2189512 12.90161194 19 13 C19 12.34 19 11.68 19 11 C13.08301414 8.91848596 13.08301414 8.91848596 7 7.4375 C6.34 7.293125 5.68 7.14875 5 7 C4.505 6.01 4.505 6.01 4 5 C2.081875 5.0309375 2.081875 5.0309375 0.125 5.0625 C-3.75 5.125 -3.75 5.125 -6 4 C-6 2.68 -6 1.36 -6 0 C-7.21236328 0.03480469 -7.21236328 0.03480469 -8.44921875 0.0703125 C-9.51785156 0.08835938 -10.58648437 0.10640625 -11.6875 0.125 C-12.74324219 0.14820313 -13.79898438 0.17140625 -14.88671875 0.1953125 C-18.06161537 -0.00386546 -20.11000874 -0.74245044 -23 -2 C-28.36998571 -3.09107483 -33.66226399 -3.38781136 -39 -2 C-41.13575439 -0.59869315 -41.13575439 -0.59869315 -42 2 C-42.56600598 6.96624598 -42.35749907 10.56677466 -40 15 C-40 15.66 -40 16.32 -40 17 C-39.34 17.33 -38.68 17.66 -38 18 C-38.99 18 -39.98 18 -41 18 C-43.96503734 12.90384207 -45.77020919 9.05164364 -45 3 C-43.78527097 -1.28727892 -42.87207433 -3.36576413 -39.25 -6 C-26.68665631 -10.15295561 -11.86781578 -4.00642522 0 0 Z " fill="#EDAB53" transform="translate(182,192)"/>
<path d="M0 0 C2.88092425 2.97695506 3 3.66821748 3 8 C2.34 8 1.68 8 1 8 C0.505 5.525 0.505 5.525 0 3 C-0.99 3 -1.98 3 -3 3 C-3.495 2.01 -3.495 2.01 -4 1 C-7.0399648 0.30662208 -7.0399648 0.30662208 -10.5625 -0.125 C-12.35880859 -0.37636719 -12.35880859 -0.37636719 -14.19140625 -0.6328125 C-15.11824219 -0.75398437 -16.04507813 -0.87515625 -17 -1 C-17 -0.34 -17 0.32 -17 1 C-18.2065625 1.4640625 -18.2065625 1.4640625 -19.4375 1.9375 C-21.89080405 2.76335345 -21.89080405 2.76335345 -23 4 C-24.91289178 4.29632219 -26.83056514 4.56203716 -28.75 4.8125 C-33.67043824 5.57621731 -36.31395263 6.54433059 -40 10 C-41.32 10 -42.64 10 -44 10 C-44 10.66 -44 11.32 -44 12 C-44.81404297 12.29003906 -44.81404297 12.29003906 -45.64453125 12.5859375 C-46.71767578 12.97652344 -46.71767578 12.97652344 -47.8125 13.375 C-48.52019531 13.63023437 -49.22789062 13.88546875 -49.95703125 14.1484375 C-52.24773359 15.0265769 -52.24773359 15.0265769 -55 17 C-54.67 15.68 -54.34 14.36 -54 13 C-54.99 13 -55.98 13 -57 13 C-57.33 13.99 -57.66 14.98 -58 16 C-64.6 16 -71.2 16 -78 16 C-78 15.67 -78 15.34 -78 15 C-77.13955078 15.0309375 -77.13955078 15.0309375 -76.26171875 15.0625 C-69.60737094 14.90093769 -64.41650458 13.11680668 -58.4375 10.4375 C-50.50983987 6.89232713 -42.49448961 4.09354043 -34.1875 1.5625 C-32.51482056 1.04997681 -32.51482056 1.04997681 -30.80834961 0.52709961 C-8.86559833 -6.05455496 -8.86559833 -6.05455496 0 0 Z " fill="#FD8818" transform="translate(359,188)"/>
<path d="M0 0 C-1.93694678 0.81381795 -3.87457711 1.62600916 -5.8125 2.4375 C-6.89144531 2.88996094 -7.97039062 3.34242188 -9.08203125 3.80859375 C-11.0295126 4.60375013 -13.00438943 5.33479648 -15 6 C-16.54556796 10.63670387 -16.62495411 15.1618721 -16 20 C-14.04394667 22.71564997 -14.04394667 22.71564997 -12.40234375 24.25390625 C-10.52002089 26.59763415 -9.83517487 28.96714664 -8.875 31.8125 C-5.90721893 40.07853126 -1.09034983 46.97191602 3.80175781 54.2109375 C8 60.4792176 8 60.4792176 8 63 C7.01 63 6.02 63 5 63 C4.54625 62.05125 4.0925 61.1025 3.625 60.125 C2.19761746 56.99686321 2.19761746 56.99686321 0 55 C-0.39764263 53.01178687 -0.73775349 51.01055661 -1 49 C-1.66 49 -2.32 49 -3 49 C-3 48.34 -3 47.68 -3 47 C-3.598125 46.979375 -4.19625 46.95875 -4.8125 46.9375 C-7 46 -7 46 -8.5625 42.875 C-9.04828285 41.58580704 -9.52714664 40.29399118 -10 39 C-10.55481147 37.68423151 -11.11696646 36.37152788 -11.6875 35.0625 C-12.120625 34.051875 -12.55375 33.04125 -13 32 C-13.66 32 -14.32 32 -15 32 C-15.99 30.02 -16.98 28.04 -18 26 C-18.66 26 -19.32 26 -20 26 C-19.8859425 23.08252927 -19.75919732 20.16655505 -19.625 17.25 C-19.5940625 16.425 -19.563125 15.6 -19.53125 14.75 C-19.47324219 13.55117187 -19.47324219 13.55117187 -19.4140625 12.328125 C-19.3826416 11.5949707 -19.3512207 10.86181641 -19.31884766 10.10644531 C-18.96227477 7.75077082 -18.16337117 6.06549409 -17 4 C-16.01 4 -15.02 4 -14 4 C-14 3.34 -14 2.68 -14 2 C-12.42085985 1.46658816 -10.83645613 0.94874237 -9.25 0.4375 C-8.36828125 0.14746094 -7.4865625 -0.14257812 -6.578125 -0.44140625 C-3.92165684 -1.01697435 -2.52968894 -0.89248371 0 0 Z " fill="#F5713D" transform="translate(314,237)"/>
<path d="M0 0 C0.99 0 1.98 0 3 0 C2.67 3.3 2.34 6.6 2 10 C2.66 10 3.32 10 4 10 C4.103125 11.093125 4.20625 12.18625 4.3125 13.3125 C4.97307727 16.85559629 5.2027092 17.93243723 8 20 C7.34 20 6.68 20 6 20 C6.33 20.66 6.66 21.32 7 22 C11.62 22 16.24 22 21 22 C20 24 20 24 18.0625 25.125 C12.21879886 26.7946289 6.98487236 26.99243618 1.5 24.25 C-1.57692537 21.48076716 -2.81412513 19.57631549 -3.30078125 15.44921875 C-3.32607962 9.48723632 -2.81622102 5.28041442 0 0 Z " fill="#E1725E" transform="translate(172,310)"/>
<path d="M0 0 C6.24445179 7.49334214 7.17861305 13.49247424 7.125 23.1875 C7.12886719 23.89841797 7.13273437 24.60933594 7.13671875 25.34179688 C7.13078494 28.49561884 7.00443535 30.98669395 6 34 C5.45645414 39.76158611 6.46965272 42.46098207 10 47 C10.5775 47.78375 11.155 48.5675 11.75 49.375 C12.1625 49.91125 12.575 50.4475 13 51 C12.01 51.495 12.01 51.495 11 52 C7.311281 50.20293177 5.38844597 48.25697177 3 45 C2.01 44.67 1.02 44.34 0 44 C-0.16027948 41.1951091 -0.10581238 39.25917607 0.96484375 36.63671875 C3.92337216 29.1008445 2.99840386 20.72370882 2.15625 12.84765625 C2.01372769 10.25018718 2.19732193 8.44934851 3 6 C2.34 6 1.68 6 1 6 C0.67 4.02 0.34 2.04 0 0 Z " fill="#F3A551" transform="translate(264,149)"/>
<path d="M0 0 C5.3145307 4.59635087 8.31589856 12.28494912 9.5625 19.0546875 C9.80823754 24.59914074 9.00287683 28.43937322 5.34765625 32.6953125 C2.41244423 35.53693805 0.58741684 35.92657289 -3.5 36.4375 C-14.07682738 36.10390804 -23.0424761 29.3127601 -31 23 C-29 22 -29 22 -26.125 22.6875 C-22.82761668 24.072401 -21.48933387 25.51066613 -19 28 C-16.70984902 29.17736612 -14.40968619 30.07319762 -12 31 C-12 31.66 -12 32.32 -12 33 C-7.05 33 -2.1 33 3 33 C3.33 31.35 3.66 29.7 4 28 C4.350625 27.38125 4.70125 26.7625 5.0625 26.125 C7.27590264 21.10795401 5.8552528 15.2384234 5 10 C2.525 9.01 2.525 9.01 0 8 C-0.38063221 5.6739143 -0.71269945 3.33944736 -1 1 C-0.67 0.67 -0.34 0.34 0 0 Z " fill="#DE8271" transform="translate(322,300)"/>
<path d="M0 0 C4.95 0.33 9.9 0.66 15 1 C15 2.32 15 3.64 15 5 C16.32 5.33 17.64 5.66 19 6 C19 6.66 19 7.32 19 8 C19.99 8.33 20.98 8.66 22 9 C22.27100637 17.5367005 21.79996632 26.98404445 16.4375 34.0625 C14.94296201 36.07687729 14.43661788 37.55493989 14 40 C13.01 40 12.02 40 11 40 C11 40.66 11 41.32 11 42 C9.515 42.495 9.515 42.495 8 43 C8 42.01 8 41.02 8 40 C8.66 40 9.32 40 10 40 C10.09152344 39.29101562 10.18304688 38.58203125 10.27734375 37.8515625 C11.13365686 34.47259726 12.63156996 32.26944462 14.5625 29.375 C18.15179633 23.43687989 19.03183474 18.83590512 18 12 C17.67 11.01 17.34 10.02 17 9 C16.34 9 15.68 9 15 9 C14.41734375 8.38640625 13.8346875 7.7728125 13.234375 7.140625 C10.67237171 4.68611835 8.59612708 3.86537569 5.25 2.75 C4.26515625 2.41484375 3.2803125 2.0796875 2.265625 1.734375 C1.51796875 1.49203125 0.7703125 1.2496875 0 1 C0 0.67 0 0.34 0 0 Z " fill="#F09162" transform="translate(184,236)"/>
<path d="M0 0 C1.875 0.5625 1.875 0.5625 4 2 C5.8468025 6.70934637 6.4660232 10.96694947 6 16 C4.5625 18.6875 4.5625 18.6875 3 21 C2.814375 21.7425 2.62875 22.485 2.4375 23.25 C2.293125 23.8275 2.14875 24.405 2 25 C-0.58008592 26.29004296 -2.55741574 26.20410224 -5.4375 26.25 C-6.88962891 26.28867187 -6.88962891 26.28867187 -8.37109375 26.328125 C-11 26 -11 26 -12.84765625 24.609375 C-14 23 -14 23 -14 21 C-8.125 21.875 -8.125 21.875 -7 23 C-6.34 22.01 -5.68 21.02 -5 20 C-4.34 20 -3.68 20 -3 20 C-2.67 19.01 -2.34 18.02 -2 17 C-0.68352881 16.30062468 0.65022151 15.63270867 2 15 C3.20272819 12.59454362 3.10071472 11.05003047 3.0625 8.375 C3.05347656 7.55773437 3.04445313 6.74046875 3.03515625 5.8984375 C3.02355469 5.27195312 3.01195312 4.64546875 3 4 C1.68 3.34 0.36 2.68 -1 2 C-0.67 1.34 -0.34 0.68 0 0 Z " fill="#F03715" transform="translate(323,308)"/>
<path d="M0 0 C0.495 1.98 0.495 1.98 1 4 C0.030625 3.71125 -0.93875 3.4225 -1.9375 3.125 C-6.44151728 2.53594341 -9.06941963 4.24470526 -12.65234375 6.83203125 C-16.42428945 10.31527561 -19.25165855 14.38071134 -22.15234375 18.5859375 C-22.76207031 19.38257813 -23.37179688 20.17921875 -24 21 C-24.66 21 -25.32 21 -26 21 C-26 21.66 -26 22.32 -26 23 C-26.66 23 -27.32 23 -28 23 C-28.66 24.32 -29.32 25.64 -30 27 C-30.66 27 -31.32 27 -32 27 C-31.01 23.535 -31.01 23.535 -30 20 C-28.35 20 -26.7 20 -25 20 C-25 18.35 -25 16.7 -25 15 C-23.68 14.34 -22.36 13.68 -21 13 C-21 11.68 -21 10.36 -21 9 C-20.34 9 -19.68 9 -19 9 C-18.95230469 8.39671875 -18.90460938 7.7934375 -18.85546875 7.171875 C-18 5 -18 5 -15.48828125 3.515625 C-13.91626953 2.88914062 -13.91626953 2.88914062 -12.3125 2.25 C-11.27738281 1.82203125 -10.24226563 1.3940625 -9.17578125 0.953125 C-5.93734659 -0.01880373 -3.35915717 -0.18130384 0 0 Z " fill="#EB9073" transform="translate(254,280)"/>
<path d="M0 0 C9.29538906 2.0600592 18.45220888 4.72610444 27 9 C32.02893321 9.42484112 36.4316468 9.35785972 41 7 C40 10 40 10 38 11 C36.5534758 11.15067214 35.1012066 11.24861036 33.6484375 11.31640625 C32.79765625 11.35830078 31.946875 11.40019531 31.0703125 11.44335938 C30.18085938 11.48267578 29.29140625 11.52199219 28.375 11.5625 C27.02921875 11.62727539 27.02921875 11.62727539 25.65625 11.69335938 C23.43765717 11.79956861 21.2189512 11.90161194 19 12 C19 11.34 19 10.68 19 10 C12.11175931 7.59009896 12.11175931 7.59009896 5 6 C4.67 4.68 4.34 3.36 4 2 C2.68 1.67 1.36 1.34 0 1 C0 0.67 0 0.34 0 0 Z " fill="#F2AB52" transform="translate(182,193)"/>
<path d="M0 0 C-2.47697763 1.10932127 -4.95585245 2.21370071 -7.4375 3.3125 C-8.16654541 3.63573242 -8.89559082 3.95896484 -9.64672852 4.29199219 C-13.53211426 5.99311674 -17.36902327 7.52813605 -21.4375 8.75 C-23.2009375 9.36875 -23.2009375 9.36875 -25 10 C-25.33 10.99 -25.66 11.98 -26 13 C-32.6 13 -39.2 13 -46 13 C-46 12.67 -46 12.34 -46 12 C-45.13955078 12.0309375 -45.13955078 12.0309375 -44.26171875 12.0625 C-34.70200589 11.83039771 -26.82424954 7.7499912 -18.23828125 3.96289062 C-4.97485273 -1.74292984 -4.97485273 -1.74292984 0 0 Z " fill="#F2B66B" transform="translate(327,191)"/>
<path d="M0 0 C1.9375 0.375 1.9375 0.375 4 1 C4.33 1.66 4.66 2.32 5 3 C5.804375 3.45375 6.60875 3.9075 7.4375 4.375 C10 6 10 6 10.9375 8.0625 C11.92778146 10.35507448 11.92778146 10.35507448 15.125 11.25 C16.07375 11.4975 17.0225 11.745 18 12 C18.33 15.63 18.66 19.26 19 23 C18.34 22.67 17.68 22.34 17 22 C17 21.34 17 20.68 17 20 C16.34 20 15.68 20 15 20 C15 19.34 15 18.68 15 18 C14.34 18 13.68 18 13 18 C13 17.34 13 16.68 13 16 C12.34 16 11.68 16 11 16 C7 11.52941176 7 11.52941176 7 9 C6.34 9 5.68 9 5 9 C3.7109375 7.28515625 3.7109375 7.28515625 2.375 5.0625 C1.92898438 4.33160156 1.48296875 3.60070312 1.0234375 2.84765625 C0 1 0 1 0 0 Z " fill="#E76851" transform="translate(263,292)"/>
<path d="M0 0 C2.27600141 2.27600141 3.1452166 4.26920203 4.5 7.1875 C7.39870757 13.13596442 10.86481861 18.50806324 14.66015625 23.92260742 C16.74922556 26.93894303 18.25998657 29.40969095 19 33 C18.01 33 17.02 33 16 33 C15.54625 32.05125 15.0925 31.1025 14.625 30.125 C13.19761746 26.99686321 13.19761746 26.99686321 11 25 C10.60235737 23.01178687 10.26224651 21.01055661 10 19 C9.34 19 8.68 19 8 19 C8 18.34 8 17.68 8 17 C7.401875 16.979375 6.80375 16.95875 6.1875 16.9375 C4 16 4 16 2.3125 13 C0.69697356 8.77680316 0.29490758 4.48462907 0 0 Z " fill="#E57B64" transform="translate(303,267)"/>
<path d="M0 0 C-0.99 0.66 -1.98 1.32 -3 2 C-3.72382467 4.05925139 -3.72382467 4.05925139 -4 6 C-4.77714355 5.99476318 -5.55428711 5.98952637 -6.35498047 5.98413086 C-9.86164549 5.96339844 -13.36829763 5.95035179 -16.875 5.9375 C-18.09832031 5.92912109 -19.32164062 5.92074219 -20.58203125 5.91210938 C-21.74863281 5.90888672 -22.91523438 5.90566406 -24.1171875 5.90234375 C-25.19597168 5.89710693 -26.27475586 5.89187012 -27.38623047 5.88647461 C-29.98232186 5.82116894 -29.98232186 5.82116894 -32 7 C-33.5625 5.75 -33.5625 5.75 -35 4 C-34.6875 1.8125 -34.6875 1.8125 -34 0 C-31.03 0.495 -31.03 0.495 -28 1 C-27.67 1.99 -27.34 2.98 -27 4 C-20.4 4 -13.8 4 -7 4 C-6.67 2.68 -6.34 1.36 -6 0 C-3.50907189 -1.24546405 -2.58919267 -0.7767578 0 0 Z " fill="#F4862A" transform="translate(308,200)"/>
<path d="M0 0 C2.88092425 2.97695506 3 3.66821748 3 8 C2.34 8 1.68 8 1 8 C0.67 6.35 0.34 4.7 0 3 C-0.99 3 -1.98 3 -3 3 C-3.33 2.34 -3.66 1.68 -4 1 C-7.0399648 0.30662208 -7.0399648 0.30662208 -10.5625 -0.125 C-11.76003906 -0.29257813 -12.95757812 -0.46015625 -14.19140625 -0.6328125 C-15.11824219 -0.75398437 -16.04507812 -0.87515625 -17 -1 C-17 -0.34 -17 0.32 -17 1 C-21.62 1.33 -26.24 1.66 -31 2 C-24.27351726 -4.72648274 -7.70511615 -5.26203054 0 0 Z " fill="#EDB560" transform="translate(359,188)"/>
<path d="M0 0 C0.99 0.66 1.98 1.32 3 2 C-0.96 2 -4.92 2 -9 2 C-9.433125 3.3921875 -9.433125 3.3921875 -9.875 4.8125 C-11 8 -11 8 -13 11 C-13.69313908 12.65583225 -14.36474424 14.32110979 -15 16 C-15.66 16 -16.32 16 -17 16 C-17.99 18.475 -17.99 18.475 -19 21 C-20.16161779 18.13421241 -19.9946154 16.98369837 -19.00390625 13.984375 C-18.52824219 12.91703125 -18.05257812 11.8496875 -17.5625 10.75 C-17.08941406 9.67234375 -16.61632812 8.5946875 -16.12890625 7.484375 C-15.75636719 6.66453125 -15.38382813 5.8446875 -15 5 C-14.34 5 -13.68 5 -13 5 C-13 4.34 -13 3.68 -13 3 C-8.46370773 0.3446094 -5.25370771 -0.4956328 0 0 Z " fill="#F1BF4F" transform="translate(253,120)"/>
<path d="M0 0 C1.32 0.33 2.64 0.66 4 1 C3.27683594 1.47179687 3.27683594 1.47179687 2.5390625 1.953125 C1.90742188 2.38109375 1.27578125 2.8090625 0.625 3.25 C-0.31472656 3.87648438 -0.31472656 3.87648438 -1.2734375 4.515625 C-3.11740901 5.89726448 -3.11740901 5.89726448 -3.9453125 8 C-5.33637103 10.63785915 -6.88438078 11.37425223 -9.5 12.75 C-10.69109375 13.39195312 -10.69109375 13.39195312 -11.90625 14.046875 C-14 15 -14 15 -16 15 C-17.125 9.25 -17.125 9.25 -16 7 C-12.7 7.33 -9.4 7.66 -6 8 C-5.67 6.35 -5.34 4.7 -5 3 C-3.35 2.67 -1.7 2.34 0 2 C0 1.34 0 0.68 0 0 Z " fill="#E65C40" transform="translate(210,317)"/>
<path d="M0 0 C0.66 0.66 1.32 1.32 2 2 C1.9375 3.9375 1.9375 3.9375 1 6 C-0.65532623 7.01866229 -2.32260138 8.01810813 -4 9 C-4.33 9.680625 -4.66 10.36125 -5 11.0625 C-6 13 -6 13 -8.13671875 14.20703125 C-11.83051427 15.230006 -14.12687164 14.5929428 -17.8125 13.625 C-18.97394531 13.32851562 -20.13539063 13.03203125 -21.33203125 12.7265625 C-22.65267578 12.36691406 -22.65267578 12.36691406 -24 12 C-24 11.67 -24 11.34 -24 11 C-23.09378906 11.00902344 -22.18757812 11.01804688 -21.25390625 11.02734375 C-13.39788271 10.83613894 -8.56352034 9.99233745 -2.57421875 4.7890625 C-0.77743557 2.98111479 -0.77743557 2.98111479 0 0 Z " fill="#F3932A" transform="translate(230,193)"/>
<path d="M0 0 C0.33 0 0.66 0 1 0 C0.78981854 6.8875424 0.55767163 13.77409398 0.31030273 20.66040039 C0.22875186 23.00267782 0.15221461 25.34513543 0.08081055 27.68774414 C-0.02275238 31.05675327 -0.14438294 34.42470089 -0.26953125 37.79296875 C-0.29779495 38.83897751 -0.32605865 39.88498627 -0.35517883 40.96269226 C-0.73054846 50.20802663 -0.73054846 50.20802663 -4 54 C-6.6875 55.3125 -6.6875 55.3125 -9 56 C-8.47599609 55.31164062 -8.47599609 55.31164062 -7.94140625 54.609375 C-7.48636719 53.99578125 -7.03132812 53.3821875 -6.5625 52.75 C-6.11003906 52.14671875 -5.65757812 51.5434375 -5.19140625 50.921875 C-2.44390081 46.48983344 -2.72096712 41.36057182 -2.5 36.2890625 C-2.45939453 35.44330658 -2.41878906 34.59755066 -2.37695312 33.72616577 C-2.24749817 31.02594074 -2.12318826 28.32551772 -2 25.625 C-1.8766544 22.93163312 -1.75206219 20.23835915 -1.62304688 17.54525757 C-1.54286707 15.87144446 -1.46588514 14.19747414 -1.39257812 12.52334595 C-1.18927137 8.27636363 -0.80458581 4.18636056 0 0 Z " fill="#F1C68B" transform="translate(232,144)"/>
<path d="M0 0 C-2.07330847 6.09796608 -4.87109727 9.1638618 -10 13 C-10 12.34 -10 11.68 -10 11 C-10.99 11.33 -11.98 11.66 -13 12 C-12.6875 10.125 -12.6875 10.125 -12 8 C-11.01 7.34 -10.02 6.68 -9 6 C-8.26656572 2.93443402 -8.26656572 2.93443402 -8 0 C-4.71303767 -0.79953138 -3.28976808 -1.09658936 0 0 Z " fill="#F04F18" transform="translate(224,304)"/>
<path d="M0 0 C2 3 2 3 2 5 C0.68 5 -0.64 5 -2 5 C-2.185625 5.928125 -2.37125 6.85625 -2.5625 7.8125 C-4 11 -4 11 -7.5625 12.75 C-9.2640625 13.36875 -9.2640625 13.36875 -11 14 C-11.33 14.66 -11.66 15.32 -12 16 C-12.66 16 -13.32 16 -14 16 C-12.63436578 10.78576025 -10.70951382 7.79783558 -7 4 C-4.6875 3.125 -4.6875 3.125 -3 3 C-3 2.34 -3 1.68 -3 1 C-2.01 0.67 -1.02 0.34 0 0 Z " fill="#F45B25" transform="translate(198,275)"/>
<path d="M0 0 C4.95 0.33 9.9 0.66 15 1 C15 2.32 15 3.64 15 5 C16.32 5.33 17.64 5.66 19 6 C19 6.66 19 7.32 19 8 C19.99 8.33 20.98 8.66 22 9 C22.05447047 10.41623216 22.09300508 11.83308191 22.125 13.25 C22.14820313 14.03890625 22.17140625 14.8278125 22.1953125 15.640625 C21.9828378 18.20731941 21.28654105 19.7916067 20 22 C20.04382813 21.20335937 20.08765625 20.40671875 20.1328125 19.5859375 C20.22599781 13.19675999 20.22599781 13.19675999 17.0234375 7.97265625 C11.73459044 4.75513784 5.95527041 2.63985707 0 1 C0 0.67 0 0.34 0 0 Z " fill="#EB8C56" transform="translate(184,236)"/>
<path d="M0 0 C1.875 0.5625 1.875 0.5625 4 2 C5.8468025 6.70934637 6.4660232 10.96694947 6 16 C4.625 18.6875 4.625 18.6875 3 21 C2.31903578 22.32608822 1.64669414 23.65686601 1 25 C1 24.01 1 23.02 1 22 C0.34 22 -0.32 22 -1 22 C0.05875074 18.59687262 1.00902154 15.98646769 3 13 C3.24107326 10.71351152 3.24107326 10.71351152 3.125 8.3125 C3.10695313 7.50425781 3.08890625 6.69601562 3.0703125 5.86328125 C3.04710937 5.24839844 3.02390625 4.63351562 3 4 C1.68 3.34 0.36 2.68 -1 2 C-0.67 1.34 -0.34 0.68 0 0 Z " fill="#F1411B" transform="translate(323,308)"/>
<path d="M0 0 C1.37285156 0.23396484 1.37285156 0.23396484 2.7734375 0.47265625 C4.55621094 0.76462891 4.55621094 0.76462891 6.375 1.0625 C7.55835938 1.25972656 8.74171875 1.45695312 9.9609375 1.66015625 C12.91450901 2.26934687 12.91450901 2.26934687 15 1 C15.33 3.31 15.66 5.62 16 8 C16.99 8.33 17.98 8.66 19 9 C18.67 9.66 18.34 10.32 18 11 C14.5625 9.6875 14.5625 9.6875 11 8 C10.67 7.01 10.34 6.02 10 5 C8.12612784 4.19787372 8.12612784 4.19787372 5.9375 3.8125 C5.20402344 3.65394531 4.47054688 3.49539063 3.71484375 3.33203125 C3.14894531 3.22246094 2.58304687 3.11289062 2 3 C2 2.34 2 1.68 2 1 C1.34 0.67 0.68 0.34 0 0 Z " fill="#EB3318" transform="translate(289,319)"/>
<path d="M0 0 C5.32767155 4.60771593 8.39116984 12.35152888 9.52734375 19.16015625 C9.6759226 23.57591966 9.68063057 26.08540268 7 29.6875 C6.34 30.120625 5.68 30.55375 5 31 C5.309375 30.360625 5.61875 29.72125 5.9375 29.0625 C7.31935403 25.07950896 7.6536543 21.18349151 8 17 C7.34 17 6.68 17 6 17 C5.67 14.69 5.34 12.38 5 10 C2.525 9.01 2.525 9.01 0 8 C-0.38063221 5.6739143 -0.71269945 3.33944736 -1 1 C-0.67 0.67 -0.34 0.34 0 0 Z " fill="#E78F7B" transform="translate(322,300)"/>
<path d="M0 0 C-1.93694678 0.81381795 -3.87457711 1.62600916 -5.8125 2.4375 C-6.89144531 2.88996094 -7.97039062 3.34242188 -9.08203125 3.80859375 C-11.0295126 4.60375013 -13.00438943 5.33479648 -15 6 C-16.00259507 9.00778521 -16.30314642 11.53820647 -16.5625 14.6875 C-16.64628906 15.68136719 -16.73007812 16.67523438 -16.81640625 17.69921875 C-16.87699219 18.45847656 -16.93757813 19.21773438 -17 20 C-19.29634463 15.91760955 -19.49015885 12.59995225 -19 8 C-18 5.5 -18 5.5 -17 4 C-16.01 4 -15.02 4 -14 4 C-14 3.34 -14 2.68 -14 2 C-12.42085985 1.46658816 -10.83645613 0.94874237 -9.25 0.4375 C-8.36828125 0.14746094 -7.4865625 -0.14257812 -6.578125 -0.44140625 C-3.92165684 -1.01697435 -2.52968894 -0.89248371 0 0 Z " fill="#E38757" transform="translate(314,237)"/>
<path d="M0 0 C1.22589844 0.49113281 1.22589844 0.49113281 2.4765625 0.9921875 C6.59263124 2.16951093 10.13044334 2.22478162 14.375 2.125 C15.47908203 2.11146484 15.47908203 2.11146484 16.60546875 2.09765625 C18.4037888 2.07430144 20.20193911 2.03843836 22 2 C21 4 21 4 19.0625 5.125 C14.18252309 6.51927912 8.81392198 7.1766301 4.01953125 5.171875 C2.375 4.125 2.375 4.125 0 2 C0 1.34 0 0.68 0 0 Z " fill="#DA6A57" transform="translate(171,330)"/>
<path d="M0 0 C0.33 0 0.66 0 1 0 C1.22786458 1.98567708 1.45572917 3.97135417 1.68359375 5.95703125 C1.97170735 8.19396393 1.97170735 8.19396393 3 11 C3.598125 11.12375 4.19625 11.2475 4.8125 11.375 C8.00104544 12.28601298 9.11621701 14.37615941 11 17 C10.34 17.33 9.68 17.66 9 18 C5.311281 16.20293177 3.38844597 14.25697177 1 11 C0.01 10.67 -0.98 10.34 -2 10 C-2.22036864 6.14354879 -1.60355101 3.50776784 0 0 Z " fill="#F59239" transform="translate(266,183)"/>
<path d="M0 0 C0.66 0 1.32 0 2 0 C0.428995 6.98224443 -4.12750926 12.04426163 -9.9375 16 C-10.618125 16.33 -11.29875 16.66 -12 17 C-12 15.68 -12 14.36 -12 13 C-11.01 13 -10.02 13 -9 13 C-8.67 12.01 -8.34 11.02 -8 10 C-7.34 10 -6.68 10 -6 10 C-6.33 9.01 -6.66 8.02 -7 7 C-5.68 7 -4.36 7 -3 7 C-3 5.68 -3 4.36 -3 3 C-2.01 3 -1.02 3 0 3 C0 2.01 0 1.02 0 0 Z " fill="#EEA258" transform="translate(360,200)"/>
<path d="M0 0 C3.96 0 7.92 0 12 0 C12.33 1.32 12.66 2.64 13 4 C3.58997722 5.51708428 3.58997722 5.51708428 -1 3 C-0.67 2.01 -0.34 1.02 0 0 Z " fill="#F5AF1F" transform="translate(244,122)"/>
<path d="M0 0 C0.66 0.33 1.32 0.66 2 1 C2 1.99 2 2.98 2 4 C3.65 3.34 5.3 2.68 7 2 C6.01 3.485 6.01 3.485 5 5 C5.99 5.99 6.98 6.98 8 8 C7.01 8.495 7.01 8.495 6 9 C5.67 9.66 5.34 10.32 5 11 C4.608125 10.38125 4.21625 9.7625 3.8125 9.125 C1.72282509 6.67503632 0.02536673 5.98120002 -3 5 C-2 2 -2 2 0 0 Z " fill="#F04C1F" transform="translate(257,278)"/>
<path d="M0 0 C5.02478761 2.37281637 6.72324217 5.0962139 9 10 C8.67 10.99 8.34 11.98 8 13 C7.67 12.01 7.34 11.02 7 10 C6.01 10.33 5.02 10.66 4 11 C3.32591692 9.73308493 2.66099503 8.46129251 2 7.1875 C1.62875 6.47980469 1.2575 5.77210937 0.875 5.04296875 C0 3 0 3 0 0 Z " fill="#EEBF5D" transform="translate(256,122)"/>
<path d="M0 0 C0.99 0.33 1.98 0.66 3 1 C1.79618552 3.49361571 0.54571278 5.68143083 -1 8 C-1.66 8 -2.32 8 -3 8 C-3 8.66 -3 9.32 -3 10 C-3.66 10 -4.32 10 -5 10 C-5.66 11.32 -6.32 12.64 -7 14 C-7.66 14 -8.32 14 -9 14 C-8.34 11.69 -7.68 9.38 -7 7 C-5.35 7 -3.7 7 -2 7 C-2.04125 6.21625 -2.0825 5.4325 -2.125 4.625 C-2 2 -2 2 0 0 Z " fill="#E4906E" transform="translate(231,293)"/>
<path d="M0 0 C1.9375 0.375 1.9375 0.375 4 1 C4.33 1.66 4.66 2.32 5 3 C5.804375 3.4125 6.60875 3.825 7.4375 4.25 C10.66833631 6.4564248 11.0900106 8.27731611 12 12 C7.54834369 10.60090802 5.03393909 8.52592921 2 5 C0.6875 2.1875 0.6875 2.1875 0 0 Z " fill="#E45035" transform="translate(263,292)"/>
<path d="M0 0 C4.75 1.875 4.75 1.875 7 3 C7.33 2.01 7.66 1.02 8 0 C8 1.98 8 3.96 8 6 C8.804375 6.268125 9.60875 6.53625 10.4375 6.8125 C11.283125 7.204375 12.12875 7.59625 13 8 C13.33 8.99 13.66 9.98 14 11 C9.96407129 9.63079505 7.32473622 7.80419512 4.1875 4.9375 C3.39730469 4.22464844 2.60710937 3.51179687 1.79296875 2.77734375 C1.20128906 2.19082031 0.60960937 1.60429687 0 1 C0 0.67 0 0.34 0 0 Z " fill="#E68346" transform="translate(143,211)"/>
<path d="M0 0 C0.66 0.33 1.32 0.66 2 1 C1.34 1.66 0.68 2.32 0 3 C-0.46162427 5.43252661 -0.46162427 5.43252661 -0.625 8.125 C-0.69976562 9.03507813 -0.77453125 9.94515625 -0.8515625 10.8828125 C-0.90054687 11.58148438 -0.94953125 12.28015625 -1 13 C-3.07553648 13.5534764 -4.84365964 14 -7 14 C-6.71253906 13.43667969 -6.42507813 12.87335938 -6.12890625 12.29296875 C-4.61380996 9.21559323 -3.26696012 6.07212316 -1.90234375 2.92578125 C-1 1 -1 1 0 0 Z " fill="#F46C2F" transform="translate(296,242)"/>
<path d="M0 0 C0.33 0 0.66 0 1 0 C0.87431641 1.48113281 0.87431641 1.48113281 0.74609375 2.9921875 C0.59333984 4.91417969 0.59333984 4.91417969 0.4375 6.875 C0.28087891 8.78925781 0.28087891 8.78925781 0.12109375 10.7421875 C-0.25683367 13.88643942 -0.25683367 13.88643942 1 16 C0.1875 19.0625 0.1875 19.0625 -1 22 C-1.66 22.33 -2.32 22.66 -3 23 C-2.22095672 7.25512528 -2.22095672 7.25512528 0 0 Z " fill="#FC9F14" transform="translate(236,136)"/>
<path d="M0 0 C-2.57642673 2.57642673 -4.23985561 2.53827721 -7.8125 3.0625 C-11.56492861 3.62652964 -15.28502208 4.22404343 -19 5 C-14.51069534 -0.19814224 -6.52267825 -2.34816417 0 0 Z " fill="#F4941C" transform="translate(338,190)"/>
<path d="M0 0 C1.32 0.33 2.64 0.66 4 1 C4 1.66 4 2.32 4 3 C4.99 3.33 5.98 3.66 7 4 C7.05447047 5.41623216 7.09300508 6.83308191 7.125 8.25 C7.14820313 9.03890625 7.17140625 9.8278125 7.1953125 10.640625 C6.9828378 13.20731941 6.28654105 14.7916067 5 17 C4.96132812 15.73542969 4.96132812 15.73542969 4.921875 14.4453125 C4.83679688 12.80175781 4.83679688 12.80175781 4.75 11.125 C4.70359375 10.03445312 4.6571875 8.94390625 4.609375 7.8203125 C4.31153872 4.8667935 4.31153872 4.8667935 1.953125 3.6171875 C1.30859375 3.41351563 0.6640625 3.20984375 0 3 C0 2.01 0 1.02 0 0 Z " fill="#EB783D" transform="translate(199,241)"/>
<path d="M0 0 C1.32 0.33 2.64 0.66 4 1 C3.27683594 1.47179687 3.27683594 1.47179687 2.5390625 1.953125 C-2.25371352 5.09388748 -2.25371352 5.09388748 -5 10 C-5.99 9.67 -6.98 9.34 -8 9 C-7.34 9 -6.68 9 -6 9 C-6.061875 8.21625 -6.12375 7.4325 -6.1875 6.625 C-6.125625 5.75875 -6.06375 4.8925 -6 4 C-3 2 -3 2 0 2 C0 1.34 0 0.68 0 0 Z " fill="#E48C69" transform="translate(210,317)"/>
<path d="M0 0 C0.67578125 1.703125 0.67578125 1.703125 1 4 C-0.14453125 6.359375 -0.14453125 6.359375 -1.8125 8.75 C-2.62654297 9.94882812 -2.62654297 9.94882812 -3.45703125 11.171875 C-3.96621094 11.77515625 -4.47539062 12.3784375 -5 13 C-5.66 13 -6.32 13 -7 13 C-5.35821735 8.22390502 -2.73453298 4.20617096 0 0 Z " fill="#E78762" transform="translate(183,291)"/>
<path d="M0 0 C1 2 1 2 0.3125 4.875 C-1.04766767 8.11349446 -2.29269734 9.80031659 -5 12 C-5.66 12 -6.32 12 -7 12 C-5.63855967 6.80177328 -3.53269829 3.90456127 0 0 Z " fill="#EA9771" transform="translate(191,279)"/>
<path d="M0 0 C1.875 0.5625 1.875 0.5625 4 2 C5.86117261 6.74599015 6.20674844 10.93466333 6 16 C4.2873431 13.25974896 3.86050413 11.03420172 3.625 7.875 C3.46137782 3.96514728 3.46137782 3.96514728 0.9375 2.5 C0.298125 2.335 -0.34125 2.17 -1 2 C-0.67 1.34 -0.34 0.68 0 0 Z " fill="#E84325" transform="translate(323,308)"/>
<path d="M0 0 C3.35111834 2.23407889 4.81553956 3.26215824 5.8125 7.25 C5.874375 8.1575 5.93625 9.065 6 10 C5.01 10 4.02 10 3 10 C0 3.375 0 3.375 0 0 Z " fill="#F1A186" transform="translate(297,257)"/>
<path d="M0 0 C3.94727588 -0.17942163 6.5980513 -0.09350689 10 2 C10 2.66 10 3.32 10 4 C2.25 4.125 2.25 4.125 0 3 C0 2.01 0 1.02 0 0 Z " fill="#F49420" transform="translate(176,193)"/>
<path d="M0 0 C0.33 0 0.66 0 1 0 C2.32388229 6.43028541 3.24794402 12.4294834 3 19 C-0.01399879 14.47900181 -0.12108347 11.13967935 -0.0625 5.75 C-0.04896484 4.13351563 -0.04896484 4.13351563 -0.03515625 2.484375 C-0.02355469 1.66453125 -0.01195312 0.8446875 0 0 Z " fill="#E9B777" transform="translate(266,138)"/>
<path d="M0 0 C0.99 0 1.98 0 3 0 C3 0.66 3 1.32 3 2 C3.66 2 4.32 2 5 2 C5.33 2.99 5.66 3.98 6 5 C4.02 5.99 4.02 5.99 2 7 C0.4375 5.75 0.4375 5.75 -1 4 C-0.6875 1.8125 -0.6875 1.8125 0 0 Z " fill="#F97F1C" transform="translate(274,200)"/>
<path d="M0 0 C1.89692143 0.45380895 3.79249595 0.91324992 5.6875 1.375 C6.74324219 1.63023437 7.79898438 1.88546875 8.88671875 2.1484375 C11.70406766 2.91905489 14.31668325 3.85498543 17 5 C13.61725734 6.12758089 12.23221777 5.81750262 8.8125 5.0625 C7.91144531 4.86785156 7.01039063 4.67320312 6.08203125 4.47265625 C5.39496094 4.31667969 4.70789063 4.16070312 4 4 C4 3.34 4 2.68 4 2 C2.68 1.67 1.36 1.34 0 1 C0 0.67 0 0.34 0 0 Z " fill="#F0C278" transform="translate(182,193)"/>
<path d="M0 0 C0.69867188 0.08378906 1.39734375 0.16757812 2.1171875 0.25390625 C3.02726563 0.35574219 3.93734375 0.45757812 4.875 0.5625 C5.77992188 0.66691406 6.68484375 0.77132813 7.6171875 0.87890625 C10.01653057 1.19674852 10.01653057 1.19674852 12 0 C11.67 1.32 11.34 2.64 11 4 C7.37 4 3.74 4 0 4 C0.33 3.34 0.66 2.68 1 2 C0.67 1.67 0.34 1.34 0 1 C0 0.67 0 0.34 0 0 Z " fill="#EA3F1E" transform="translate(182,329)"/>
<path d="M0 0 C5.37305699 0.88082902 5.37305699 0.88082902 8 2 C10 5.125 10 5.125 11 8 C6.99698968 6.23867546 3.3971023 3.73867517 0 1 C0 0.67 0 0.34 0 0 Z " fill="#E28075" transform="translate(291,322)"/>
<path d="M0 0 C0.66 1.32 1.32 2.64 2 4 C-0.65654657 7.73884332 -2.58110387 9.64978174 -7 11 C-7.33 10.01 -7.66 9.02 -8 8 C-6.35 8 -4.7 8 -3 8 C-3 7.34 -3 6.68 -3 6 C-2.34 6 -1.68 6 -1 6 C-1.33 4.68 -1.66 3.36 -2 2 C-1.34 2 -0.68 2 0 2 C0 1.34 0 0.68 0 0 Z " fill="#F09650" transform="translate(346,213)"/>
<path d="M0 0 C0.33 0 0.66 0 1 0 C0.63076923 7.38461538 0.63076923 7.38461538 -2.5625 10.5 C-3.366875 10.995 -4.17125 11.49 -5 12 C-5.66 11.67 -6.32 11.34 -7 11 C-6.21625 10.113125 -5.4325 9.22625 -4.625 8.3125 C-2.42843009 5.69279481 -1.06209659 3.28284399 0 0 Z " fill="#EBB86D" transform="translate(230,188)"/>
<path d="M0 0 C1.4835001 0.42257276 2.96176424 0.86356322 4.4375 1.3125 C5.67306641 1.67794922 5.67306641 1.67794922 6.93359375 2.05078125 C7.61550781 2.36402344 8.29742187 2.67726563 9 3 C9.33 3.99 9.66 4.98 10 6 C6.38238619 5.67112602 4.44334967 5.37334709 1.625 3 C0 1 0 1 0 0 Z " fill="#D1513B" transform="translate(300,327)"/>
<path d="M0 0 C-0.33 1.32 -0.66 2.64 -1 4 C-2.66666667 4 -4.33333333 4 -6 4 C-6 2.68 -6 1.36 -6 0 C-3.50907189 -1.24546405 -2.58919267 -0.7767578 0 0 Z " fill="#F35222" transform="translate(311,284)"/>
<path d="M0 0 C0.66 0 1.32 0 2 0 C1.67 0.99 1.34 1.98 1 3 C0.77820215 4.89212737 0.59385985 6.78884472 0.4375 8.6875 C0.31181641 10.17830078 0.31181641 10.17830078 0.18359375 11.69921875 C0.12300781 12.45847656 0.06242187 13.21773438 0 14 C-2.39927276 9.75366805 -2.31113014 6.8225171 -2 2 C-1.34 1.34 -0.68 0.68 0 0 Z " fill="#F5B9A0" transform="translate(297,243)"/>
<path d="M0 0 C2.31 0 4.62 0 7 0 C4.88613536 2.11386464 3.20732397 2.97008322 0.5 4.1875 C-0.2940625 4.55230469 -1.088125 4.91710937 -1.90625 5.29296875 C-2.5971875 5.52628906 -3.288125 5.75960937 -4 6 C-4.66 5.67 -5.32 5.34 -6 5 C-5.67 4.34 -5.34 3.68 -5 3 C-3.66666667 2.66666667 -2.33333333 2.33333333 -1 2 C-0.67 1.34 -0.34 0.68 0 0 Z " fill="#E48452" transform="translate(321,230)"/>
<path d="M0 0 C0.66 0 1.32 0 2 0 C1.67 3.3 1.34 6.6 1 10 C0.34 10 -0.32 10 -1 10 C-1.33 10.99 -1.66 11.98 -2 13 C-2 10.69 -2 8.38 -2 6 C-1.34 6 -0.68 6 0 6 C0 4.02 0 2.04 0 0 Z " fill="#E64923" transform="translate(173,310)"/>
<path d="M0 0 C2.475 0.495 2.475 0.495 5 1 C4.01 1.495 4.01 1.495 3 2 C3.99 2.33 4.98 2.66 6 3 C6 3.66 6 4.32 6 5 C4.68 5 3.36 5 2 5 C2 5.66 2 6.32 2 7 C1.34 7 0.68 7 0 7 C0 4.69 0 2.38 0 0 Z " fill="#EA4E20" transform="translate(208,312)"/>
<path d="M0 0 C0.33 0.99 0.66 1.98 1 3 C-1.31 5.31 -3.62 7.62 -6 10 C-6.33 9.01 -6.66 8.02 -7 7 C-6.34 7 -5.68 7 -5 7 C-5 6.34 -5 5.68 -5 5 C-4.34 5 -3.68 5 -3 5 C-2.814375 4.0409375 -2.814375 4.0409375 -2.625 3.0625 C-2.41875 2.381875 -2.2125 1.70125 -2 1 C-1.34 0.67 -0.68 0.34 0 0 Z " fill="#EDA989" transform="translate(221,307)"/>
<path d="M0 0 C0.33 0 0.66 0 1 0 C1 2.31 1 4.62 1 7 C-0.98 7.99 -0.98 7.99 -3 9 C-3 7.35 -3 5.7 -3 4 C-2.34 4 -1.68 4 -1 4 C-0.67 2.68 -0.34 1.36 0 0 Z " fill="#ED8256" transform="translate(236,285)"/>
<path d="M0 0 C4.38889325 0.66498383 7.9811485 2.18757677 12 4 C12 4.66 12 5.32 12 6 C7.53866273 4.86279638 3.79558613 3.64540851 0 1 C0 0.67 0 0.34 0 0 Z " fill="#E39157" transform="translate(171,230)"/>
<path d="M0 0 C1.32 0 2.64 0 4 0 C5 3 5 3 4 6 C3.34 6 2.68 6 2 6 C2 5.34 2 4.68 2 4 C1.01 4.33 0.02 4.66 -1 5 C-0.67 3.35 -0.34 1.7 0 0 Z " fill="#ED3918" transform="translate(172,320)"/>
<path d="M0 0 C2.475 0.99 2.475 0.99 5 2 C5.33 1.34 5.66 0.68 6 0 C6.66 1.65 7.32 3.3 8 5 C6.68 5.33 5.36 5.66 4 6 C2.68 4.02 1.36 2.04 0 0 Z " fill="#EA7E67" transform="translate(270,302)"/>
<path d="M0 0 C2.3125 0.1875 2.3125 0.1875 5 1 C6.8125 3.5625 6.8125 3.5625 8 6 C5 6 5 6 3.61328125 4.6875 C2.40885417 3.125 1.20442708 1.5625 0 0 Z " fill="#E07E6C" transform="translate(255,284)"/>
<path d="M0 0 C-2.38198208 1.19099104 -4.75828946 2.34197368 -7.1875 3.4375 C-10.29115029 4.74724316 -10.29115029 4.74724316 -11 8 C-11.66 7.67 -12.32 7.34 -13 7 C-9.54291058 0.74431438 -7.10821544 -0.26823454 0 0 Z " fill="#F15A27" transform="translate(246,281)"/>
<path d="M0 0 C0.33 1.32 0.66 2.64 1 4 C-0.60875 3.7215625 -0.60875 3.7215625 -2.25 3.4375 C-5.40391546 3.0695432 -7.09818492 2.95534657 -10 4 C-9.34 3.67 -8.68 3.34 -8 3 C-8 2.34 -8 1.68 -8 1 C-5.29120665 -0.35439668 -2.99066732 -0.06501451 0 0 Z " fill="#E48268" transform="translate(254,280)"/>
<path d="M0 0 C0.99 0.33 1.98 0.66 3 1 C2.21625 1.9075 1.4325 2.815 0.625 3.75 C-1.30052496 6.05190236 -2.82205741 8.21577207 -4 11 C-4.36630156 7.06225823 -4.30233203 5.43460229 -2 2.125 C-1.34 1.42375 -0.68 0.7225 0 0 Z " fill="#F9880A" transform="translate(143,189)"/>
<path d="M0 0 C0.66 0.99 1.32 1.98 2 3 C0.74093486 6.58833566 -0.29462171 9.29462171 -3 12 C-2.40075776 7.80530429 -1.42500059 3.99000166 0 0 Z " fill="#F0C779" transform="translate(236,129)"/>
<path d="M0 0 C-1.4375 1.625 -1.4375 1.625 -4 3 C-7.09705247 2.66417503 -10.01810374 1.88564868 -13 1 C-13 0.67 -13 0.34 -13 0 C-11.39679026 -0.19551338 -9.79237014 -0.38111983 -8.1875 -0.5625 C-7.29417969 -0.66691406 -6.40085938 -0.77132812 -5.48046875 -0.87890625 C-3 -1 -3 -1 0 0 Z " fill="#FC8E24" transform="translate(225,205)"/>
<path d="M0 0 C-1.5625 2 -1.5625 2 -4 4 C-7.75 4.25 -7.75 4.25 -11 4 C-3.77464789 -1.88732394 -3.77464789 -1.88732394 0 0 Z " fill="#F6C27C" transform="translate(303,199)"/>
<path d="M0 0 C0.33 0 0.66 0 1 0 C1.37952295 6.19887485 0.8352113 10.4477112 -2 16 C-2.33 16 -2.66 16 -3 16 C-2.125 8.125 -2.125 8.125 -1 7 C-0.63239269 4.67182036 -0.29758419 2.3381615 0 0 Z " fill="#DB6A4B" transform="translate(329,317)"/>
<path d="M0 0 C0.99 0.33 1.98 0.66 3 1 C2.21625 1.763125 1.4325 2.52625 0.625 3.3125 C-2.07257717 5.90891805 -2.07257717 5.90891805 -4 9 C-3.38461538 3.46153846 -3.38461538 3.46153846 -1.4375 1.125 C-0.963125 0.75375 -0.48875 0.3825 0 0 Z " fill="#E95D22" transform="translate(221,303)"/>
<path d="M0 0 C0.66 0 1.32 0 2 0 C0.90931332 3.77545388 0.0916909 6.47043472 -3 9 C-3 7.02 -3 5.04 -3 3 C-2.01 3 -1.02 3 0 3 C0 2.01 0 1.02 0 0 Z " fill="#E9AA6B" transform="translate(360,200)"/>
<path d="M0 0 C0.66666667 2.66666667 1.33333333 5.33333333 2 8 C1.01 8 0.02 8 -1 8 C-3 5 -3 5 -2.75 2.875 C-2 1 -2 1 0 0 Z " fill="#F87B13" transform="translate(142,199)"/>
<path d="M0 0 C0 1.65 0 3.3 0 5 C-1.98 5 -3.96 5 -6 5 C-5.1875 3.0625 -5.1875 3.0625 -4 1 C-1 0 -1 0 0 0 Z " fill="#ED3E13" transform="translate(204,320)"/>
<path d="M0 0 C1.46132217 2.92264434 2.34099246 4.92463146 3 8 C1.02 8.99 1.02 8.99 -1 10 C-0.67 6.7 -0.34 3.4 0 0 Z " fill="#E87247" transform="translate(295,253)"/>
<path d="M0 0 C3.875 0.875 3.875 0.875 5 2 C5.07244053 4.01964199 5.08377188 6.04167124 5.0625 8.0625 C5.05347656 9.16722656 5.04445312 10.27195313 5.03515625 11.41015625 C5.02355469 12.26480469 5.01195312 13.11945313 5 14 C4.67 14 4.34 14 4 14 C3.93941406 13.31292969 3.87882813 12.62585938 3.81640625 11.91796875 C3.73261719 11.01691406 3.64882812 10.11585938 3.5625 9.1875 C3.48128906 8.29417969 3.40007812 7.40085938 3.31640625 6.48046875 C3.06510233 3.87256441 3.06510233 3.87256441 2 1 C1.34 0.67 0.68 0.34 0 0 Z " fill="#ECB39D" transform="translate(199,244)"/>
<path d="M0 0 C2.64 0.33 5.28 0.66 8 1 C8 1.66 8 2.32 8 3 C5.21176345 4.0326802 4.1322726 4.04509293 1.25 3.0625 C0.5075 2.711875 -0.235 2.36125 -1 2 C-0.67 1.34 -0.34 0.68 0 0 Z " fill="#FCB109" transform="translate(244,123)"/>
<path d="M0 0 C1.32 0.99 2.64 1.98 4 3 C3.34 3 2.68 3 2 3 C1.67 3.99 1.34 4.98 1 6 C0.01 5.67 -0.98 5.34 -2 5 C-1.125 1.125 -1.125 1.125 0 0 Z " fill="#E93719" transform="translate(176,327)"/>
<path d="M0 0 C2.6855594 2.6855594 3.06049974 5.37621328 4 9 C3.01 9 2.02 9 1 9 C0.67 6.03 0.34 3.06 0 0 Z " fill="#EB9782" transform="translate(303,267)"/>
<path d="M0 0 C6.64615385 1.47692308 6.64615385 1.47692308 8.4375 4.125 C8.7159375 5.053125 8.7159375 5.053125 9 6 C8.34 6 7.68 6 7 6 C7 5.34 7 4.68 7 4 C6.401875 3.896875 5.80375 3.79375 5.1875 3.6875 C2.71756736 2.91123545 1.67748765 1.92911079 0 0 Z " fill="#E99B65" transform="translate(157,222)"/>
<path d="M0 0 C2.97 0.495 2.97 0.495 6 1 C6 4 6 4 5 6 C4.34 6 3.68 6 3 6 C3 4.68 3 3.36 3 2 C2.01 1.67 1.02 1.34 0 1 C0 0.67 0 0.34 0 0 Z " fill="#FC730A" transform="translate(145,208)"/>
<path d="M0 0 C1.65 0 3.3 0 5 0 C5 1.32 5 2.64 5 4 C3.35 4 1.7 4 0 4 C0 2.68 0 1.36 0 0 Z " fill="#F1501C" transform="translate(224,296)"/>
<path d="M0 0 C1.875 0.1875 1.875 0.1875 4 1 C5.25 3.5625 5.25 3.5625 6 6 C5.01 6 4.02 6 3 6 C2.01 4.02 1.02 2.04 0 0 Z " fill="#DB6753" transform="translate(263,292)"/>
<path d="M0 0 C2.875 0.25 2.875 0.25 6 1 C7.375 3.0625 7.375 3.0625 8 5 C4.62496331 3.8141763 2.35277269 2.72426311 0 0 Z " fill="#E8A176" transform="translate(149,217)"/>
<path d="M0 0 C2 1 2 1 2 1 Z " fill="#FFFFFF" transform="translate(385,349)"/>
<path d="" fill="#FFFFFF" transform="translate(0,0)"/>
<path d="" fill="#FFFFFF" transform="translate(0,0)"/>
<path d="" fill="#FFFFFF" transform="translate(0,0)"/>
<path d="" fill="#FFFFFF" transform="translate(0,0)"/>
<path d="" fill="#FFFFFF" transform="translate(0,0)"/>
<path d="" fill="#FFFFFF" transform="translate(0,0)"/>
<path d="" fill="#FFFFFF" transform="translate(0,0)"/>
<path d="" fill="#FFFFFF" transform="translate(0,0)"/>
<path d="" fill="#FFFFFF" transform="translate(0,0)"/>
<path d="" fill="#FFFFFF" transform="translate(0,0)"/>
<path d="" fill="#FFFFFF" transform="translate(0,0)"/>
<path d="" fill="#FFFFFF" transform="translate(0,0)"/>
<path d="" fill="#FFFFFF" transform="translate(0,0)"/>
<path d="" fill="#FFFFFF" transform="translate(0,0)"/>
<path d="" fill="#FFFFFF" transform="translate(0,0)"/>
<path d="" fill="#FFFFFF" transform="translate(0,0)"/>
<path d="" fill="#FFFFFF" transform="translate(0,0)"/>
<path d="" fill="#FFFFFF" transform="translate(0,0)"/>
<path d="" fill="#FFFFFF" transform="translate(0,0)"/>
<path d="" fill="#FFFFFF" transform="translate(0,0)"/>
<path d="" fill="#FFFFFF" transform="translate(0,0)"/>
<path d="" fill="#FFFFFF" transform="translate(0,0)"/>
<path d="" fill="#FFFFFF" transform="translate(0,0)"/>
<path d="" fill="#FFFFFF" transform="translate(0,0)"/>
<path d="" fill="#FFFFFF" transform="translate(0,0)"/>
<path d="" fill="#FFFFFF" transform="translate(0,0)"/>
<path d="" fill="#FFFFFF" transform="translate(0,0)"/>
<path d="" fill="#FFFFFF" transform="translate(0,0)"/>
<path d="" fill="#FFFFFF" transform="translate(0,0)"/>
<path d="" fill="#FFFFFF" transform="translate(0,0)"/>
<path d="" fill="#FFFFFF" transform="translate(0,0)"/>
<path d="" fill="#FFFFFF" transform="translate(0,0)"/>
<path d="" fill="#FFFFFF" transform="translate(0,0)"/>
<path d="" fill="#FFFFFF" transform="translate(0,0)"/>
<path d="" fill="#FFFFFF" transform="translate(0,0)"/>
<path d="" fill="#FFFFFF" transform="translate(0,0)"/>
<path d="" fill="#FFFFFF" transform="translate(0,0)"/>
<path d="" fill="#FFFFFF" transform="translate(0,0)"/>
<path d="" fill="#FFFFFF" transform="translate(0,0)"/>
<path d="" fill="#FFFFFF" transform="translate(0,0)"/>
<path d="" fill="#FFFFFF" transform="translate(0,0)"/>
<path d="" fill="#FFFFFF" transform="translate(0,0)"/>
<path d="" fill="#FFFFFF" transform="translate(0,0)"/>
<path d="" fill="#FFFFFF" transform="translate(0,0)"/>
<path d="" fill="#FFFFFF" transform="translate(0,0)"/>
<path d="" fill="#FFFFFF" transform="translate(0,0)"/>
<path d="" fill="#FFFFFF" transform="translate(0,0)"/>
<path d="" fill="#FFFFFF" transform="translate(0,0)"/>
<path d="" fill="#FFFFFF" transform="translate(0,0)"/>
<path d="" fill="#FFFFFF" transform="translate(0,0)"/>
<path d="" fill="#FFFFFF" transform="translate(0,0)"/>
<path d="" fill="#FFFFFF" transform="translate(0,0)"/>
<path d="" fill="#FFFFFF" transform="translate(0,0)"/>
<path d="" fill="#FFFFFF" transform="translate(0,0)"/>
<path d="" fill="#FFFFFF" transform="translate(0,0)"/>
<path d="" fill="#FFFFFF" transform="translate(0,0)"/>
<path d="" fill="#FFFFFF" transform="translate(0,0)"/>
<path d="" fill="#FFFFFF" transform="translate(0,0)"/>
<path d="" fill="#FFFFFF" transform="translate(0,0)"/>
<path d="" fill="#FFFFFF" transform="translate(0,0)"/>
<path d="" fill="#FFFFFF" transform="translate(0,0)"/>
<path d="" fill="#FFFFFF" transform="translate(0,0)"/>
<path d="" fill="#FFFFFF" transform="translate(0,0)"/>
<path d="" fill="#FFFFFF" transform="translate(0,0)"/>
<path d="" fill="#FFFFFF" transform="translate(0,0)"/>
<path d="" fill="#FFFFFF" transform="translate(0,0)"/>
<path d="" fill="#FFFFFF" transform="translate(0,0)"/>
<path d="" fill="#FFFFFF" transform="translate(0,0)"/>
<path d="" fill="#FFFFFF" transform="translate(0,0)"/>
<path d="" fill="#FFFFFF" transform="translate(0,0)"/>
<path d="" fill="#FFFFFF" transform="translate(0,0)"/>
<path d="" fill="#FFFFFF" transform="translate(0,0)"/>
<path d="" fill="#FFFFFF" transform="translate(0,0)"/>
<path d="" fill="#FFFFFF" transform="translate(0,0)"/>
<path d="" fill="#FFFFFF" transform="translate(0,0)"/>
<path d="" fill="#FFFFFF" transform="translate(0,0)"/>
</svg>
